<svg width="350" height="36" viewBox="0 0 350 36" fill="none" xmlns="http://www.w3.org/2000/svg">
<path d="M16.9062 25.7812L24.6016 31.875L20.9102 35.0781L13.332 28.9844L16.9062 25.7812ZM24.7969 15.1172V16.4648C24.7969 18.6263 24.5039 20.5664 23.918 22.2852C23.3451 24.0039 22.5182 25.4688 21.4375 26.6797C20.3568 27.8776 19.0807 28.7956 17.6094 29.4336C16.138 30.0716 14.5039 30.3906 12.707 30.3906C10.9232 30.3906 9.28906 30.0716 7.80469 29.4336C6.32031 28.7956 5.03776 27.8776 3.95703 26.6797C2.8763 25.4688 2.03646 24.0039 1.4375 22.2852C0.851562 20.5664 0.558594 18.6263 0.558594 16.4648V15.1172C0.558594 12.9427 0.851562 11.0026 1.4375 9.29688C2.03646 7.57812 2.86979 6.11328 3.9375 4.90234C5.00521 3.69141 6.28125 2.76693 7.76562 2.12891C9.25 1.49089 10.8841 1.17188 12.668 1.17188C14.4648 1.17188 16.099 1.49089 17.5703 2.12891C19.0547 2.76693 20.3372 3.69141 21.418 4.90234C22.4987 6.11328 23.332 7.57812 23.918 9.29688C24.5039 11.0026 24.7969 12.9427 24.7969 15.1172ZM18.8789 16.4648V15.0781C18.8789 13.5677 18.7357 12.2396 18.4492 11.0938C18.1758 9.94792 17.7721 8.98438 17.2383 8.20312C16.7174 7.42188 16.0729 6.83594 15.3047 6.44531C14.5365 6.04167 13.6576 5.83984 12.668 5.83984C11.6784 5.83984 10.7995 6.04167 10.0312 6.44531C9.26302 6.83594 8.61849 7.42188 8.09766 8.20312C7.57682 8.98438 7.17969 9.94792 6.90625 11.0938C6.63281 12.2396 6.49609 13.5677 6.49609 15.0781V16.4648C6.49609 17.9622 6.63281 19.2904 6.90625 20.4492C7.17969 21.5951 7.57682 22.5651 8.09766 23.3594C8.63151 24.1406 9.28255 24.7331 10.0508 25.1367C10.832 25.5404 11.7174 25.7422 12.707 25.7422C13.6966 25.7422 14.569 25.5404 15.3242 25.1367C16.0924 24.7331 16.737 24.1406 17.2578 23.3594C17.7917 22.5651 18.1953 21.5951 18.4688 20.4492C18.7422 19.2904 18.8789 17.9622 18.8789 16.4648ZM41.1836 24.9414V8.86719H46.8086V30H41.5156L41.1836 24.9414ZM41.8086 20.6055L43.4688 20.5664C43.4688 21.9727 43.306 23.2812 42.9805 24.4922C42.6549 25.6901 42.1667 26.7318 41.5156 27.6172C40.8646 28.4896 40.0443 29.1732 39.0547 29.668C38.0651 30.1497 36.8997 30.3906 35.5586 30.3906C34.5299 30.3906 33.5794 30.2474 32.707 29.9609C31.8477 29.6615 31.1055 29.1992 30.4805 28.5742C29.8685 27.9362 29.3867 27.1224 29.0352 26.1328C28.6966 25.1302 28.5273 23.9258 28.5273 22.5195V8.86719H34.1523V22.5586C34.1523 23.1836 34.224 23.7109 34.3672 24.1406C34.5234 24.5703 34.7383 24.9219 35.0117 25.1953C35.2852 25.4688 35.6042 25.6641 35.9688 25.7812C36.3464 25.8984 36.763 25.957 37.2188 25.957C38.3776 25.957 39.2891 25.7227 39.9531 25.2539C40.6302 24.7852 41.1055 24.1471 41.3789 23.3398C41.6654 22.5195 41.8086 21.6081 41.8086 20.6055ZM51.1055 0H56.7305V25.1562L56.1641 30H51.1055V0ZM70.1094 19.2188V19.6289C70.1094 21.2044 69.9401 22.6497 69.6016 23.9648C69.276 25.2799 68.7682 26.4193 68.0781 27.3828C67.388 28.3333 66.5286 29.0755 65.5 29.6094C64.4844 30.1302 63.2865 30.3906 61.9062 30.3906C60.6172 30.3906 59.4974 30.1302 58.5469 29.6094C57.6094 29.0885 56.8216 28.3529 56.1836 27.4023C55.5456 26.4518 55.0312 25.3385 54.6406 24.0625C54.25 22.7865 53.957 21.3932 53.7617 19.8828V18.9844C53.957 17.474 54.25 16.0807 54.6406 14.8047C55.0312 13.5286 55.5456 12.4154 56.1836 11.4648C56.8216 10.5143 57.6094 9.77865 58.5469 9.25781C59.4844 8.73698 60.5911 8.47656 61.8672 8.47656C63.2604 8.47656 64.4714 8.74349 65.5 9.27734C66.5417 9.79818 67.401 10.5404 68.0781 11.5039C68.7682 12.4544 69.276 13.5872 69.6016 14.9023C69.9401 16.2044 70.1094 17.6432 70.1094 19.2188ZM64.4844 19.6289V19.2188C64.4844 18.3594 64.4193 17.5521 64.2891 16.7969C64.1719 16.0286 63.9635 15.3581 63.6641 14.7852C63.3646 14.1992 62.9544 13.737 62.4336 13.3984C61.9258 13.0599 61.2682 12.8906 60.4609 12.8906C59.6927 12.8906 59.0417 13.0208 58.5078 13.2812C57.974 13.5417 57.5312 13.9062 57.1797 14.375C56.8411 14.8438 56.5872 15.4036 56.418 16.0547C56.2487 16.6927 56.1445 17.3958 56.1055 18.1641V20.7227C56.1445 21.7513 56.3138 22.6628 56.6133 23.457C56.9258 24.2383 57.3945 24.8568 58.0195 25.3125C58.6576 25.7552 59.4844 25.9766 60.5 25.9766C61.2943 25.9766 61.9518 25.8203 62.4727 25.5078C62.9935 25.1953 63.3971 24.7526 63.6836 24.1797C63.9831 23.6068 64.1914 22.9362 64.3086 22.168C64.4258 21.3867 64.4844 20.5404 64.4844 19.6289ZM79.543 8.86719V30H73.8984V8.86719H79.543ZM73.5469 3.35938C73.5469 2.53906 73.8333 1.86198 74.4062 1.32812C74.9792 0.794271 75.7474 0.527344 76.7109 0.527344C77.6615 0.527344 78.4232 0.794271 78.9961 1.32812C79.582 1.86198 79.875 2.53906 79.875 3.35938C79.875 4.17969 79.582 4.85677 78.9961 5.39062C78.4232 5.92448 77.6615 6.19141 76.7109 6.19141C75.7474 6.19141 74.9792 5.92448 74.4062 5.39062C73.8333 4.85677 73.5469 4.17969 73.5469 3.35938ZM94.543 8.86719V12.8516H82.2383V8.86719H94.543ZM85.2852 3.65234H90.9102V23.6328C90.9102 24.2448 90.9883 24.7135 91.1445 25.0391C91.3138 25.3646 91.5612 25.5924 91.8867 25.7227C92.2122 25.8398 92.6224 25.8984 93.1172 25.8984C93.4688 25.8984 93.7812 25.8854 94.0547 25.8594C94.3411 25.8203 94.582 25.7812 94.7773 25.7422L94.7969 29.8828C94.3151 30.0391 93.7943 30.1628 93.2344 30.2539C92.6745 30.3451 92.056 30.3906 91.3789 30.3906C90.1419 30.3906 89.0612 30.1888 88.1367 29.7852C87.2253 29.3685 86.5221 28.7044 86.0273 27.793C85.5326 26.8815 85.2852 25.6836 85.2852 24.1992V3.65234ZM124.543 20.5664H130.383C130.266 22.4805 129.738 24.1797 128.801 25.6641C127.876 27.1484 126.581 28.3073 124.914 29.1406C123.26 29.974 121.268 30.3906 118.938 30.3906C117.115 30.3906 115.48 30.0781 114.035 29.4531C112.59 28.8151 111.353 27.9036 110.324 26.7188C109.309 25.5339 108.534 24.1016 108 22.4219C107.466 20.7422 107.199 18.8607 107.199 16.7773V14.8047C107.199 12.7214 107.473 10.8398 108.02 9.16016C108.579 7.46745 109.374 6.02865 110.402 4.84375C111.444 3.65885 112.688 2.7474 114.133 2.10938C115.578 1.47135 117.193 1.15234 118.977 1.15234C121.346 1.15234 123.345 1.58203 124.973 2.44141C126.613 3.30078 127.883 4.48568 128.781 5.99609C129.693 7.50651 130.24 9.22526 130.422 11.1523H124.562C124.497 10.0065 124.27 9.03646 123.879 8.24219C123.488 7.4349 122.896 6.82943 122.102 6.42578C121.32 6.00911 120.279 5.80078 118.977 5.80078C118 5.80078 117.147 5.98307 116.418 6.34766C115.689 6.71224 115.077 7.26562 114.582 8.00781C114.087 8.75 113.716 9.6875 113.469 10.8203C113.234 11.9401 113.117 13.2552 113.117 14.7656V16.7773C113.117 18.2487 113.228 19.5443 113.449 20.6641C113.671 21.7708 114.009 22.7083 114.465 23.4766C114.934 24.2318 115.533 24.8047 116.262 25.1953C117.004 25.5729 117.896 25.7617 118.938 25.7617C120.161 25.7617 121.171 25.5664 121.965 25.1758C122.759 24.7852 123.365 24.2057 123.781 23.4375C124.211 22.6693 124.465 21.7122 124.543 20.5664ZM132.98 19.6484V19.2383C132.98 17.6888 133.202 16.263 133.645 14.9609C134.087 13.6458 134.732 12.5065 135.578 11.543C136.424 10.5794 137.466 9.83073 138.703 9.29688C139.94 8.75 141.359 8.47656 142.961 8.47656C144.562 8.47656 145.988 8.75 147.238 9.29688C148.488 9.83073 149.536 10.5794 150.383 11.543C151.242 12.5065 151.893 13.6458 152.336 14.9609C152.779 16.263 153 17.6888 153 19.2383V19.6484C153 21.1849 152.779 22.6107 152.336 23.9258C151.893 25.2279 151.242 26.3672 150.383 27.3438C149.536 28.3073 148.495 29.056 147.258 29.5898C146.021 30.1237 144.602 30.3906 143 30.3906C141.398 30.3906 139.973 30.1237 138.723 29.5898C137.486 29.056 136.438 28.3073 135.578 27.3438C134.732 26.3672 134.087 25.2279 133.645 23.9258C133.202 22.6107 132.98 21.1849 132.98 19.6484ZM138.605 19.2383V19.6484C138.605 20.5339 138.684 21.3607 138.84 22.1289C138.996 22.8971 139.243 23.5742 139.582 24.1602C139.934 24.7331 140.389 25.1823 140.949 25.5078C141.509 25.8333 142.193 25.9961 143 25.9961C143.781 25.9961 144.452 25.8333 145.012 25.5078C145.572 25.1823 146.021 24.7331 146.359 24.1602C146.698 23.5742 146.945 22.8971 147.102 22.1289C147.271 21.3607 147.355 20.5339 147.355 19.6484V19.2383C147.355 18.3789 147.271 17.5716 147.102 16.8164C146.945 16.0482 146.691 15.3711 146.34 14.7852C146.001 14.1862 145.552 13.7174 144.992 13.3789C144.432 13.0404 143.755 12.8711 142.961 12.8711C142.167 12.8711 141.49 13.0404 140.93 13.3789C140.383 13.7174 139.934 14.1862 139.582 14.7852C139.243 15.3711 138.996 16.0482 138.84 16.8164C138.684 17.5716 138.605 18.3789 138.605 19.2383ZM162.082 13.2422V30H156.438V8.86719H161.73L162.082 13.2422ZM161.301 18.6914H159.738C159.738 17.2201 159.914 15.8659 160.266 14.6289C160.63 13.3789 161.158 12.2982 161.848 11.3867C162.551 10.4622 163.417 9.74609 164.445 9.23828C165.474 8.73047 166.665 8.47656 168.02 8.47656C168.957 8.47656 169.816 8.61979 170.598 8.90625C171.379 9.17969 172.049 9.61589 172.609 10.2148C173.182 10.8008 173.625 11.569 173.938 12.5195C174.25 13.457 174.406 14.5833 174.406 15.8984V30H168.781V16.5234C168.781 15.5599 168.651 14.8177 168.391 14.2969C168.13 13.776 167.759 13.4115 167.277 13.2031C166.809 12.9948 166.242 12.8906 165.578 12.8906C164.849 12.8906 164.211 13.0404 163.664 13.3398C163.13 13.6393 162.688 14.056 162.336 14.5898C161.984 15.1107 161.724 15.7227 161.555 16.4258C161.385 17.1289 161.301 17.8841 161.301 18.6914ZM173.879 18.0469L171.867 18.3008C171.867 16.9206 172.036 15.638 172.375 14.4531C172.727 13.2682 173.241 12.2266 173.918 11.3281C174.608 10.4297 175.461 9.73307 176.477 9.23828C177.492 8.73047 178.664 8.47656 179.992 8.47656C181.008 8.47656 181.932 8.6263 182.766 8.92578C183.599 9.21224 184.309 9.67448 184.895 10.3125C185.493 10.9375 185.949 11.7578 186.262 12.7734C186.587 13.7891 186.75 15.0326 186.75 16.5039V30H181.105V16.5039C181.105 15.5273 180.975 14.7852 180.715 14.2773C180.467 13.7565 180.103 13.3984 179.621 13.2031C179.152 12.9948 178.592 12.8906 177.941 12.8906C177.264 12.8906 176.672 13.0273 176.164 13.3008C175.656 13.5612 175.233 13.9258 174.895 14.3945C174.556 14.8633 174.302 15.4102 174.133 16.0352C173.964 16.6471 173.879 17.3177 173.879 18.0469ZM196.73 13.2422V30H191.086V8.86719H196.379L196.73 13.2422ZM195.949 18.6914H194.387C194.387 17.2201 194.562 15.8659 194.914 14.6289C195.279 13.3789 195.806 12.2982 196.496 11.3867C197.199 10.4622 198.065 9.74609 199.094 9.23828C200.122 8.73047 201.314 8.47656 202.668 8.47656C203.605 8.47656 204.465 8.61979 205.246 8.90625C206.027 9.17969 206.698 9.61589 207.258 10.2148C207.831 10.8008 208.273 11.569 208.586 12.5195C208.898 13.457 209.055 14.5833 209.055 15.8984V30H203.43V16.5234C203.43 15.5599 203.299 14.8177 203.039 14.2969C202.779 13.776 202.408 13.4115 201.926 13.2031C201.457 12.9948 200.891 12.8906 200.227 12.8906C199.497 12.8906 198.859 13.0404 198.312 13.3398C197.779 13.6393 197.336 14.056 196.984 14.5898C196.633 15.1107 196.372 15.7227 196.203 16.4258C196.034 17.1289 195.949 17.8841 195.949 18.6914ZM208.527 18.0469L206.516 18.3008C206.516 16.9206 206.685 15.638 207.023 14.4531C207.375 13.2682 207.889 12.2266 208.566 11.3281C209.257 10.4297 210.109 9.73307 211.125 9.23828C212.141 8.73047 213.312 8.47656 214.641 8.47656C215.656 8.47656 216.581 8.6263 217.414 8.92578C218.247 9.21224 218.957 9.67448 219.543 10.3125C220.142 10.9375 220.598 11.7578 220.91 12.7734C221.236 13.7891 221.398 15.0326 221.398 16.5039V30H215.754V16.5039C215.754 15.5273 215.624 14.7852 215.363 14.2773C215.116 13.7565 214.751 13.3984 214.27 13.2031C213.801 12.9948 213.241 12.8906 212.59 12.8906C211.913 12.8906 211.32 13.0273 210.812 13.3008C210.305 13.5612 209.882 13.9258 209.543 14.3945C209.204 14.8633 208.951 15.4102 208.781 16.0352C208.612 16.6471 208.527 17.3177 208.527 18.0469ZM235.48 30.3906C233.84 30.3906 232.368 30.1302 231.066 29.6094C229.764 29.0755 228.658 28.3398 227.746 27.4023C226.848 26.4648 226.158 25.3776 225.676 24.1406C225.194 22.8906 224.953 21.5625 224.953 20.1562V19.375C224.953 17.7734 225.181 16.3086 225.637 14.9805C226.092 13.6523 226.743 12.5 227.59 11.5234C228.449 10.5469 229.491 9.79818 230.715 9.27734C231.939 8.74349 233.319 8.47656 234.855 8.47656C236.353 8.47656 237.681 8.72396 238.84 9.21875C239.999 9.71354 240.969 10.4167 241.75 11.3281C242.544 12.2396 243.143 13.3333 243.547 14.6094C243.951 15.8724 244.152 17.2786 244.152 18.8281V21.1719H227.355V17.4219H238.625V16.9922C238.625 16.2109 238.482 15.5143 238.195 14.9023C237.922 14.2773 237.505 13.7826 236.945 13.418C236.385 13.0534 235.669 12.8711 234.797 12.8711C234.055 12.8711 233.417 13.0339 232.883 13.3594C232.349 13.6849 231.913 14.1406 231.574 14.7266C231.249 15.3125 231.001 16.0026 230.832 16.7969C230.676 17.5781 230.598 18.4375 230.598 19.375V20.1562C230.598 21.0026 230.715 21.7839 230.949 22.5C231.197 23.2161 231.542 23.8346 231.984 24.3555C232.44 24.8763 232.987 25.2799 233.625 25.5664C234.276 25.8529 235.012 25.9961 235.832 25.9961C236.848 25.9961 237.792 25.8008 238.664 25.4102C239.549 25.0065 240.311 24.401 240.949 23.5938L243.684 26.5625C243.241 27.2005 242.635 27.8125 241.867 28.3984C241.112 28.9844 240.201 29.4661 239.133 29.8438C238.065 30.2083 236.848 30.3906 235.48 30.3906ZM252.98 13.4766V30H247.355V8.86719H252.648L252.98 13.4766ZM259.348 8.73047L259.25 13.9453C258.977 13.9062 258.645 13.8737 258.254 13.8477C257.876 13.8086 257.531 13.7891 257.219 13.7891C256.424 13.7891 255.734 13.8932 255.148 14.1016C254.576 14.2969 254.094 14.5898 253.703 14.9805C253.326 15.3711 253.039 15.8464 252.844 16.4062C252.661 16.9661 252.557 17.6042 252.531 18.3203L251.398 17.9688C251.398 16.6016 251.535 15.3451 251.809 14.1992C252.082 13.0404 252.479 12.0312 253 11.1719C253.534 10.3125 254.185 9.64844 254.953 9.17969C255.721 8.71094 256.6 8.47656 257.59 8.47656C257.902 8.47656 258.221 8.5026 258.547 8.55469C258.872 8.59375 259.139 8.65234 259.348 8.73047ZM270.344 25.9961C271.034 25.9961 271.646 25.8659 272.18 25.6055C272.714 25.332 273.13 24.9544 273.43 24.4727C273.742 23.9779 273.905 23.3984 273.918 22.7344H279.211C279.198 24.2188 278.801 25.5404 278.02 26.6992C277.238 27.8451 276.19 28.75 274.875 29.4141C273.56 30.0651 272.089 30.3906 270.461 30.3906C268.82 30.3906 267.388 30.1172 266.164 29.5703C264.953 29.0234 263.944 28.2682 263.137 27.3047C262.329 26.3281 261.724 25.1953 261.32 23.9062C260.917 22.6042 260.715 21.2109 260.715 19.7266V19.1602C260.715 17.6628 260.917 16.2695 261.32 14.9805C261.724 13.6784 262.329 12.5456 263.137 11.582C263.944 10.6055 264.953 9.84375 266.164 9.29688C267.375 8.75 268.794 8.47656 270.422 8.47656C272.154 8.47656 273.671 8.80859 274.973 9.47266C276.288 10.1367 277.316 11.0872 278.059 12.3242C278.814 13.5482 279.198 15 279.211 16.6797H273.918C273.905 15.9766 273.755 15.3385 273.469 14.7656C273.195 14.1927 272.792 13.737 272.258 13.3984C271.737 13.0469 271.092 12.8711 270.324 12.8711C269.504 12.8711 268.833 13.0469 268.312 13.3984C267.792 13.737 267.388 14.2057 267.102 14.8047C266.815 15.3906 266.613 16.0612 266.496 16.8164C266.392 17.5586 266.34 18.3398 266.34 19.1602V19.7266C266.34 20.5469 266.392 21.3346 266.496 22.0898C266.6 22.8451 266.796 23.5156 267.082 24.1016C267.382 24.6875 267.792 25.1497 268.312 25.4883C268.833 25.8268 269.51 25.9961 270.344 25.9961ZM292.199 30.3906C290.559 30.3906 289.087 30.1302 287.785 29.6094C286.483 29.0755 285.376 28.3398 284.465 27.4023C283.566 26.4648 282.876 25.3776 282.395 24.1406C281.913 22.8906 281.672 21.5625 281.672 20.1562V19.375C281.672 17.7734 281.9 16.3086 282.355 14.9805C282.811 13.6523 283.462 12.5 284.309 11.5234C285.168 10.5469 286.21 9.79818 287.434 9.27734C288.658 8.74349 290.038 8.47656 291.574 8.47656C293.072 8.47656 294.4 8.72396 295.559 9.21875C296.717 9.71354 297.688 10.4167 298.469 11.3281C299.263 12.2396 299.862 13.3333 300.266 14.6094C300.669 15.8724 300.871 17.2786 300.871 18.8281V21.1719H284.074V17.4219H295.344V16.9922C295.344 16.2109 295.201 15.5143 294.914 14.9023C294.641 14.2773 294.224 13.7826 293.664 13.418C293.104 13.0534 292.388 12.8711 291.516 12.8711C290.773 12.8711 290.135 13.0339 289.602 13.3594C289.068 13.6849 288.632 14.1406 288.293 14.7266C287.967 15.3125 287.72 16.0026 287.551 16.7969C287.395 17.5781 287.316 18.4375 287.316 19.375V20.1562C287.316 21.0026 287.434 21.7839 287.668 22.5C287.915 23.2161 288.26 23.8346 288.703 24.3555C289.159 24.8763 289.706 25.2799 290.344 25.5664C290.995 25.8529 291.73 25.9961 292.551 25.9961C293.566 25.9961 294.51 25.8008 295.383 25.4102C296.268 25.0065 297.03 24.401 297.668 23.5938L300.402 26.5625C299.96 27.2005 299.354 27.8125 298.586 28.3984C297.831 28.9844 296.919 29.4661 295.852 29.8438C294.784 30.2083 293.566 30.3906 292.199 30.3906ZM315.988 6.42578L308.254 30H302.023L312.59 1.5625H316.555L315.988 6.42578ZM322.414 30L314.66 6.42578L314.035 1.5625H318.039L328.664 30H322.414ZM322.062 19.4141V24.0039H307.043V19.4141H322.062ZM337.531 1.5625V30H331.691V1.5625H337.531ZM342.941 27.2852C342.941 26.4518 343.228 25.7552 343.801 25.1953C344.387 24.6354 345.161 24.3555 346.125 24.3555C347.089 24.3555 347.857 24.6354 348.43 25.1953C349.016 25.7552 349.309 26.4518 349.309 27.2852C349.309 28.1185 349.016 28.8151 348.43 29.375C347.857 29.9349 347.089 30.2148 346.125 30.2148C345.161 30.2148 344.387 29.9349 343.801 29.375C343.228 28.8151 342.941 28.1185 342.941 27.2852Z" fill="black"/>
</svg>
